<?xml version="1.0" encoding="utf-8"?>
<!-- Generator: Adobe Illustrator 25.2.3, SVG Export Plug-In . SVG Version: 6.00 Build 0)  -->
<svg version="1.1" id="Layer_2" xmlns="http://www.w3.org/2000/svg" xmlns:xlink="http://www.w3.org/1999/xlink" x="0px" y="0px"
	 viewBox="0 0 292 99" style="enable-background:new 0 0 292 99;" xml:space="preserve">
<style type="text/css">
	.st0{fill:url(#SVGID_1_);}
	.st1{fill:url(#SVGID_2_);}
	.st2{fill:url(#SVGID_3_);}
	.st3{fill:url(#SVGID_4_);}
	.st4{fill:url(#SVGID_5_);}
	.st5{fill:url(#SVGID_6_);}
	.st6{fill:url(#SVGID_7_);}
	.st7{fill:url(#SVGID_8_);}
	.st8{fill:url(#SVGID_9_);}
	.st9{fill:url(#Unten_1_);}
	.st10{fill:url(#SVGID_10_);}
	.st11{fill:url(#SVGID_11_);}
	.st12{fill:url(#open_1_);}
</style>
<g>
	<g>
		<linearGradient id="SVGID_1_" gradientUnits="userSpaceOnUse" x1="108.0493" y1="74.956" x2="108.0493" y2="74.956">
			<stop  offset="0.0386" style="stop-color:#8E08A9"/>
			<stop  offset="0.2493" style="stop-color:#D81D91"/>
			<stop  offset="0.5682" style="stop-color:#FFA461"/>
			<stop  offset="0.5878" style="stop-color:#F7A563"/>
			<stop  offset="0.6178" style="stop-color:#E2A868"/>
			<stop  offset="0.6545" style="stop-color:#BFAC71"/>
			<stop  offset="0.6964" style="stop-color:#8EB37E"/>
			<stop  offset="0.7421" style="stop-color:#51BB8D"/>
			<stop  offset="0.7857" style="stop-color:#10C39E"/>
			<stop  offset="0.8306" style="stop-color:#0FC1B7"/>
			<stop  offset="0.9192" style="stop-color:#0BBCF2"/>
			<stop  offset="1" style="stop-color:#066DF0"/>
		</linearGradient>
		<path class="st0" d="M108.05,74.96"/>
		<linearGradient id="SVGID_2_" gradientUnits="userSpaceOnUse" x1="91.0546" y1="51.0923" x2="265.265" y2="51.0923">
			<stop  offset="0.0386" style="stop-color:#8E08A9"/>
			<stop  offset="0.2493" style="stop-color:#D81D91"/>
			<stop  offset="0.5682" style="stop-color:#FFA461"/>
			<stop  offset="0.5878" style="stop-color:#F7A563"/>
			<stop  offset="0.6178" style="stop-color:#E2A868"/>
			<stop  offset="0.6545" style="stop-color:#BFAC71"/>
			<stop  offset="0.6964" style="stop-color:#8EB37E"/>
			<stop  offset="0.7421" style="stop-color:#51BB8D"/>
			<stop  offset="0.7857" style="stop-color:#10C39E"/>
			<stop  offset="0.8306" style="stop-color:#0FC1B7"/>
			<stop  offset="0.9192" style="stop-color:#0BBCF2"/>
			<stop  offset="1" style="stop-color:#066DF0"/>
		</linearGradient>
		<path class="st1" d="M108.05,24.18v20.77h-8.73V24.18h-8.26V78l8.26-1.15V52.27h8.73V75.9c2.63-0.25,5.39-0.49,8.26-0.72v-51
			H108.05z"/>
		<linearGradient id="SVGID_3_" gradientUnits="userSpaceOnUse" x1="92.3754" y1="49.4507" x2="260.619" y2="49.4507">
			<stop  offset="0.0386" style="stop-color:#8E08A9"/>
			<stop  offset="0.2493" style="stop-color:#D81D91"/>
			<stop  offset="0.5682" style="stop-color:#FFA461"/>
			<stop  offset="0.5878" style="stop-color:#F7A563"/>
			<stop  offset="0.6178" style="stop-color:#E2A868"/>
			<stop  offset="0.6545" style="stop-color:#BFAC71"/>
			<stop  offset="0.6964" style="stop-color:#8EB37E"/>
			<stop  offset="0.7421" style="stop-color:#51BB8D"/>
			<stop  offset="0.7857" style="stop-color:#10C39E"/>
			<stop  offset="0.8306" style="stop-color:#0FC1B7"/>
			<stop  offset="0.9192" style="stop-color:#0BBCF2"/>
			<stop  offset="1" style="stop-color:#066DF0"/>
		</linearGradient>
		<path class="st2" d="M139.13,72.85l0.04,1.18c2.59-0.12,5.24-0.22,7.93-0.32l0.05-1.18c0-0.01,0-0.02,0-0.02c0,0,0-0.01,0-0.01
			c-0.1-0.9-0.15-2.07-0.15-3.53v-8.98c0-3.02-0.41-5.43-1.23-7.23c-0.82-1.8-2.22-2.99-4.2-3.58v-0.03
			c3.62-1.41,5.43-4.77,5.43-10.07v-3.14c0-3.99-0.98-6.95-2.94-8.87c-1.96-1.92-5.08-2.88-9.35-2.88h-12.02v50.53
			c2.67-0.18,8.26-0.51,8.26-0.51V53.22h2.85c1.9,0,3.24,0.46,4.01,1.39c0.77,0.93,1.16,2.56,1.16,4.9v9.37
			C138.97,70.68,139.11,72.63,139.13,72.85z M138.73,40.72c0,1.95-0.4,3.34-1.21,4.17c-0.81,0.83-2.02,1.24-3.64,1.24h-2.94V31.5
			h3.67c1.42,0,2.46,0.41,3.12,1.24c0.66,0.83,0.99,2.17,0.99,4.02V40.72z"/>
		<g>
			<linearGradient id="SVGID_4_" gradientUnits="userSpaceOnUse" x1="91.3223" y1="48.8483" x2="266.4227" y2="48.8483">
				<stop  offset="0.0386" style="stop-color:#8E08A9"/>
				<stop  offset="0.2493" style="stop-color:#D81D91"/>
				<stop  offset="0.5682" style="stop-color:#FFA461"/>
				<stop  offset="0.5878" style="stop-color:#F7A563"/>
				<stop  offset="0.6178" style="stop-color:#E2A868"/>
				<stop  offset="0.6545" style="stop-color:#BFAC71"/>
				<stop  offset="0.6964" style="stop-color:#8EB37E"/>
				<stop  offset="0.7421" style="stop-color:#51BB8D"/>
				<stop  offset="0.7857" style="stop-color:#10C39E"/>
				<stop  offset="0.8306" style="stop-color:#0FC1B7"/>
				<stop  offset="0.9192" style="stop-color:#0BBCF2"/>
				<stop  offset="1" style="stop-color:#066DF0"/>
			</linearGradient>
			<path class="st3" d="M161.01,73.31l0.38-0.01V24.18h-8.26v49.33C155.72,73.43,158.35,73.37,161.01,73.31z"/>
		</g>
		<linearGradient id="SVGID_5_" gradientUnits="userSpaceOnUse" x1="92.4594" y1="48.4944" x2="265.9799" y2="48.4944">
			<stop  offset="0.0386" style="stop-color:#8E08A9"/>
			<stop  offset="0.2493" style="stop-color:#D81D91"/>
			<stop  offset="0.5682" style="stop-color:#FFA461"/>
			<stop  offset="0.5878" style="stop-color:#F7A563"/>
			<stop  offset="0.6178" style="stop-color:#E2A868"/>
			<stop  offset="0.6545" style="stop-color:#BFAC71"/>
			<stop  offset="0.6964" style="stop-color:#8EB37E"/>
			<stop  offset="0.7421" style="stop-color:#51BB8D"/>
			<stop  offset="0.7857" style="stop-color:#10C39E"/>
			<stop  offset="0.8306" style="stop-color:#0FC1B7"/>
			<stop  offset="0.9192" style="stop-color:#0BBCF2"/>
			<stop  offset="1" style="stop-color:#066DF0"/>
		</linearGradient>
		<path class="st4" d="M179.57,73.52c4.73,0,7.78-2.68,7.78-2.68c0.11-0.1,0.28-0.25,0.48-0.46c2.11-2.13,3.16-5.2,3.16-9.19
			c0-3.06-0.65-5.73-1.93-8c-1.29-2.27-3.65-4.8-7.07-7.59c-2.68-2.18-4.53-4.04-5.54-5.57c-1.02-1.53-1.53-3.18-1.53-4.94
			c0-3.11,1.36-4.66,4.09-4.66c1.34,0,2.36,0.38,3.05,1.15c0.69,0.77,1.04,1.98,1.04,3.65v2.51h7.79v-2.02c0-3.94-1-6.97-3.01-9.08
			c-2.01-2.11-4.97-3.17-8.89-3.17c-3.97,0-7,1.06-9.08,3.17c-2.08,2.11-3.13,5.09-3.13,8.94c0,2.83,0.67,5.37,2.01,7.62
			c1.34,2.25,3.7,4.77,7.07,7.55c2.68,2.18,4.51,4.05,5.51,5.6c0.99,1.56,1.49,3.35,1.49,5.39c0,1.72-0.36,2.96-1.08,3.72
			c-0.72,0.77-1.77,1.15-3.16,1.15c-2.83,0-4.24-1.58-4.24-4.73v-3.34h-7.79v2.78c0,3.94,1.02,6.97,3.05,9.08
			c0.06,0.06,0.23,0.24,0.46,0.44c0,0,2.96,2.65,8.76,2.65c0.16,0,0.31,0,0.47,0C179.37,73.52,179.57,73.52,179.57,73.52z
			 M186.63,71.41"/>
		<linearGradient id="SVGID_6_" gradientUnits="userSpaceOnUse" x1="100.6601" y1="48.5743" x2="274.6423" y2="48.5743">
			<stop  offset="0.0386" style="stop-color:#8E08A9"/>
			<stop  offset="0.2493" style="stop-color:#D81D91"/>
			<stop  offset="0.5682" style="stop-color:#FFA461"/>
			<stop  offset="0.5878" style="stop-color:#F7A563"/>
			<stop  offset="0.6178" style="stop-color:#E2A868"/>
			<stop  offset="0.6545" style="stop-color:#BFAC71"/>
			<stop  offset="0.6964" style="stop-color:#8EB37E"/>
			<stop  offset="0.7421" style="stop-color:#51BB8D"/>
			<stop  offset="0.7857" style="stop-color:#10C39E"/>
			<stop  offset="0.8306" style="stop-color:#0FC1B7"/>
			<stop  offset="0.9192" style="stop-color:#0BBCF2"/>
			<stop  offset="1" style="stop-color:#066DF0"/>
		</linearGradient>
		<path class="st5" d="M217.81,31.27v-7.08h-21.72v48.67l0,0c2.65,0.03,5.28,0.06,7.88,0.1l0.15,0c0-1.38,0-20.69,0-20.69h10.62
			v-7.08h-10.62V31.27H217.81z"/>
		<linearGradient id="SVGID_7_" gradientUnits="userSpaceOnUse" x1="92.8833" y1="49.314" x2="266.8655" y2="49.314">
			<stop  offset="0.0386" style="stop-color:#8E08A9"/>
			<stop  offset="0.2493" style="stop-color:#D81D91"/>
			<stop  offset="0.5682" style="stop-color:#FFA461"/>
			<stop  offset="0.5878" style="stop-color:#F7A563"/>
			<stop  offset="0.6178" style="stop-color:#E2A868"/>
			<stop  offset="0.6545" style="stop-color:#BFAC71"/>
			<stop  offset="0.6964" style="stop-color:#8EB37E"/>
			<stop  offset="0.7421" style="stop-color:#51BB8D"/>
			<stop  offset="0.7857" style="stop-color:#10C39E"/>
			<stop  offset="0.8306" style="stop-color:#0FC1B7"/>
			<stop  offset="0.9192" style="stop-color:#0BBCF2"/>
			<stop  offset="1" style="stop-color:#066DF0"/>
		</linearGradient>
		<path class="st6" d="M230.32,66.44V24.18h-8.26v49.23l21.72,1.02v0l-21.71-1.02c7.66,0.26,14.94,0.61,21.71,1.02v-8.01H230.32z"/>
		<linearGradient id="SVGID_8_" gradientUnits="userSpaceOnUse" x1="92.1819" y1="49.7588" x2="267.2824" y2="49.7588">
			<stop  offset="0.0386" style="stop-color:#8E08A9"/>
			<stop  offset="0.2493" style="stop-color:#D81D91"/>
			<stop  offset="0.5682" style="stop-color:#FFA461"/>
			<stop  offset="0.5878" style="stop-color:#F7A563"/>
			<stop  offset="0.6178" style="stop-color:#E2A868"/>
			<stop  offset="0.6545" style="stop-color:#BFAC71"/>
			<stop  offset="0.6964" style="stop-color:#8EB37E"/>
			<stop  offset="0.7421" style="stop-color:#51BB8D"/>
			<stop  offset="0.7857" style="stop-color:#10C39E"/>
			<stop  offset="0.8306" style="stop-color:#0FC1B7"/>
			<stop  offset="0.9192" style="stop-color:#0BBCF2"/>
			<stop  offset="1" style="stop-color:#066DF0"/>
		</linearGradient>
		<path class="st7" d="M248.02,24.18v50.53l0.02,0c2.81,0.19,5.53,0.39,8.14,0.61l0.1,0.01V24.18H248.02z"/>
		<linearGradient id="SVGID_9_" gradientUnits="userSpaceOnUse" x1="79.0334" y1="52.4367" x2="268.2566" y2="52.4367">
			<stop  offset="0.0386" style="stop-color:#8E08A9"/>
			<stop  offset="0.2493" style="stop-color:#D81D91"/>
			<stop  offset="0.5682" style="stop-color:#FFA461"/>
			<stop  offset="0.5878" style="stop-color:#F7A563"/>
			<stop  offset="0.6178" style="stop-color:#E2A868"/>
			<stop  offset="0.6545" style="stop-color:#BFAC71"/>
			<stop  offset="0.6964" style="stop-color:#8EB37E"/>
			<stop  offset="0.7421" style="stop-color:#51BB8D"/>
			<stop  offset="0.7857" style="stop-color:#10C39E"/>
			<stop  offset="0.8306" style="stop-color:#0FC1B7"/>
			<stop  offset="0.9192" style="stop-color:#0BBCF2"/>
			<stop  offset="1" style="stop-color:#066DF0"/>
		</linearGradient>
		<path class="st8" d="M282.01,78.36c4.13,0.73,7.42,1.51,9.74,2.33l0,0l-11.97-31.57l8.98-24.93h-7.72l-5.66,16.52h-0.15
			l-5.51-16.52h-8.6l8.97,24.91l-9.52,26.63l0.03,0c2.61,0.24,5.09,0.49,7.45,0.75l0.05,0l6.37-19.02h0.18L282.01,78.36
			L282.01,78.36z"/>
	</g>
</g>
<g>
	<linearGradient id="Unten_1_" gradientUnits="userSpaceOnUse" x1="0.8883" y1="69.3504" x2="88.1503" y2="69.3504">
		<stop  offset="0" style="stop-color:#FFBE58"/>
		<stop  offset="0.0439" style="stop-color:#FFB55B"/>
		<stop  offset="0.117" style="stop-color:#FF9B64"/>
		<stop  offset="0.2102" style="stop-color:#FE7273"/>
		<stop  offset="0.3187" style="stop-color:#FD3987"/>
		<stop  offset="0.3654" style="stop-color:#FD1E90"/>
		<stop  offset="1" style="stop-color:#7404AF"/>
	</linearGradient>
	<path id="Unten_2_" class="st9" d="M1.91,39.76c-1.02,27.13,32.26,62.41,66.8,22.53l19.44,23.33
		c-9.27,8.27-21.72,13.33-35.42,13.33c-28.63,0-51.84-22.11-51.84-49.39C0.89,46.2,1.24,42.93,1.91,39.76"/>
	<linearGradient id="SVGID_10_" gradientUnits="userSpaceOnUse" x1="11.5455" y1="19.1432" x2="61.8469" y2="69.4446">
		<stop  offset="6.215737e-04" style="stop-color:#5118A3"/>
		<stop  offset="0.0848" style="stop-color:#5A18A2"/>
		<stop  offset="0.2248" style="stop-color:#7417A0"/>
		<stop  offset="0.4022" style="stop-color:#9D159D"/>
		<stop  offset="0.5693" style="stop-color:#CA149A"/>
		<stop  offset="0.7299" style="stop-color:#D71C8A"/>
		<stop  offset="1" style="stop-color:#F42F66"/>
	</linearGradient>
	<path class="st10" d="M1.91,39.76C5.98,20.51,21.79,5.31,41.92,1.25C13,29.62,29.26,61.68,44.52,67.17l0,0
		c2.75,1.58,5.92,2.48,9.28,2.48c6,0,11.37-2.87,14.91-7.37C34.17,102.17,0.89,66.89,1.91,39.76"/>
	<linearGradient id="SVGID_11_" gradientUnits="userSpaceOnUse" x1="27.0254" y1="38.1223" x2="87.2979" y2="23.5517">
		<stop  offset="0" style="stop-color:#3D12BD"/>
		<stop  offset="0.0761" style="stop-color:#391BC1"/>
		<stop  offset="0.2027" style="stop-color:#2D35CA"/>
		<stop  offset="0.3631" style="stop-color:#195EDA"/>
		<stop  offset="0.4393" style="stop-color:#0F74E2"/>
		<stop  offset="0.4473" style="stop-color:#0F76E2"/>
		<stop  offset="0.7083" style="stop-color:#07B3F0"/>
		<stop  offset="0.8997" style="stop-color:#03D9F9"/>
		<stop  offset="1" style="stop-color:#01E8FC"/>
	</linearGradient>
	<path class="st11" d="M36.88,39.61c-1.53,2.9-2.41,6.24-2.41,9.79c0,7.19,3.58,13.5,8.97,17.09c0.35,0.23,0.71,0.46,1.07,0.67l0,0
		C29.26,61.68,13,29.62,41.92,1.25c3.49-0.7,7.1-1.07,10.81-1.07c13.6,0,25.98,4.99,35.23,13.16C47.27,13.3,38.62,34.68,36.81,39.76
		"/>
	<linearGradient id="open_1_" gradientUnits="userSpaceOnUse" x1="37.7677" y1="21.6842" x2="87.9486" y2="31.5899">
		<stop  offset="0" style="stop-color:#14E380"/>
		<stop  offset="0.1063" style="stop-color:#13E084"/>
		<stop  offset="0.2172" style="stop-color:#11D791"/>
		<stop  offset="0.3304" style="stop-color:#0CC7A6"/>
		<stop  offset="0.4445" style="stop-color:#06B2C3"/>
		<stop  offset="0.4524" style="stop-color:#06B0C5"/>
		<stop  offset="0.5579" style="stop-color:#069CD2"/>
		<stop  offset="0.7272" style="stop-color:#0682E2"/>
		<stop  offset="0.8798" style="stop-color:#0673EC"/>
		<stop  offset="1" style="stop-color:#066DF0"/>
	</linearGradient>
	<path id="open_2_" class="st12" d="M36.81,39.76c1.81-5.07,10.46-26.46,51.15-26.43l-19.4,23c-3.54-4.39-8.84-7.17-14.76-7.17
		c-7.28,0-13.62,4.22-16.92,10.45"/>
</g>
</svg>
